<svg xmlns="http://www.w3.org/2000/svg" viewBox="0 0 410 333.71"><defs><style>.cls-1{fill:#6d6e6d;}.cls-2{fill:#4e4d4d;}.cls-3{fill:#fff;}.cls-4{fill:#1d1d1b;}.cls-5{fill:#262626;}.cls-6{fill:#e52420;}.cls-7{fill:#7c7c7c;}</style></defs><g id="Capa_2" data-name="Capa 2"><g id="Guías"><path class="cls-1" d="M332.12,281.49h-31L286.67,198H126.76L141,269.69a145.5,145.5,0,0,0,44.12,30.05l112.19,1.8A141.83,141.83,0,0,0,332.12,281.49Z"/><path class="cls-2" d="M243.71,189.7V39.58A125.22,125.22,0,0,0,121.07,189.7Z"/><path class="cls-1" d="M293.66,189.7l14.27,82.41A125.13,125.13,0,0,0,243.71,39.58V189.7Z"/><path class="cls-3" d="M295.07,174.62l-108.26.49c-26.93,0-34.64-21.84-34.64-48.77H330.69C330.69,153.27,322,174.62,295.07,174.62Z"/><path class="cls-4" d="M174.22,137.59l47.13,18s-17.11,17.51-37,8.25C166.22,155.42,174.22,137.59,174.22,137.59Z"/><path class="cls-4" d="M305.21,137.59l-47.13,18s17.1,17.51,37,8.25C313.2,155.42,305.21,137.59,305.21,137.59Z"/><path class="cls-5" d="M210,237.36l3.21-.11.08,2.39,0-1a12.64,12.64,0,0,1,3.55,1.26,7.74,7.74,0,0,1,2.33,2l0,.65-.21-5.45,3.19-.11.44,12.43c0,.73.11,2.63.11,2.63s-1.43.1-3.15.13L219.4,249c-.06-1.45,0-.44-.06-1.45A4.34,4.34,0,0,0,219,246a7.07,7.07,0,0,0-2.18-2.28,9.54,9.54,0,0,0-3.43-1.79l.37,10.46-3.23.11Z"/><path class="cls-6" d="M243.15,0A165.79,165.79,0,0,0,110.8,65.23a10.92,10.92,0,1,0,17.32,13.31,144.1,144.1,0,0,1,115-56.69c80,0,145,65.05,145,145A147.15,147.15,0,0,1,347.1,268c-27.28,28.3-64.2,43.88-104,43.88-80,0-145-65.05-145-145a10.93,10.93,0,1,0-21.85,0c0,92,74.85,166.85,166.86,166.85,45.74,0,88.25-18,119.68-50.57C392.81,252,410,209.65,410,166.86,410,74.85,335.15,0,243.15,0Z"/><path class="cls-7" d="M104.09,99.39a57.7,57.7,0,0,0-57.8-24.54A8.87,8.87,0,0,0,40.76,89c6.64,8.26,22.94,18.31,52.42,19.63C109.84,109.36,108.32,105.72,104.09,99.39Z"/><path class="cls-7" d="M98.71,115.65c-32.66-10-73.44,5-95.62,30.74A9.83,9.83,0,0,0,.61,149.8a6.39,6.39,0,0,0-.51,1.71l0,.18a.41.41,0,0,0,0,.11c-.34,2.58.8,5.21,4.18,6.84,14.11,6.8,27.85,5.21,42.12-.33,16.63-6.45,21.58-10.68,37.32-19C90,135.9,112.89,120,98.71,115.65Z"/></g></g></svg>